# xmcd
#
# Track frame offsets:
#	151
#	20450
#	37843
#	64526
#	83465
#	110134
#	130649
#	148732
#	166657
#	185608
#	203419
#	227880
#	244941
#	264858
#
# Disc length: 3872 seconds
#
# Revision: 0
# Processed by: cddbd v1.5.2PL0 Copyright (c) Steve Scherf et al.
# Submitted via: EZCDAudioConverter 7.1.0.1
#
DISCID=ad0f1e0e
DTITLE=群星 - 滚石红人堂Ⅱ CD1 - 东方之珠2／钟爱一生
DYEAR=2002
DGENRE=
TTITLE0=成龙／苏慧伦 - 在我生命中的每一天
TTITLE1=李宗盛 - 凡人歌
TTITLE2=陈淑桦 - 一生守候
TTITLE3=成龙 - 壮志在我胸
TTITLE4=潘越云 - 你是我一辈子的爱
TTITLE5=杜德伟 - 钟爱一生
TTITLE6=娃娃 - 你不是一个好情人
TTITLE7=黄品源 - 流浪的心
TTITLE8=张洪量 - 你知道我在等你吗
TTITLE9=陈升 - 然而（你不会知道）
TTITLE10=黄品源 - 给了你最真的我的心
TTITLE11=赵传 - 男孩看见野玫瑰
TTITLE12=周华健 - 怕黑
TTITLE13=齐豫 - 有一个人
EXTD=
EXTT0=
EXTT1=
EXTT2=
EXTT3=
EXTT4=
EXTT5=
EXTT6=
EXTT7=
EXTT8=
EXTT9=
EXTT10=
EXTT11=
EXTT12=
EXTT13=
PLAYORDER=
